M48
; DRILL file {KiCad (5.1.6)-1} date 09/10/20 21:22:41
; FORMAT={-:-/ absolute / inch / decimal}
; #@! TF.CreationDate,2020-09-10T21:22:41-05:00
; #@! TF.GenerationSoftware,Kicad,Pcbnew,(5.1.6)-1
FMAT,2
INCH
T1C0.0236
T2C0.0315
T3C0.0354
T4C0.0394
T5C0.0433
T6C0.0512
T7C0.1260
%
G90
G05
T1
X6.4Y-2.05
X6.05Y-2.5713
X6.05Y-2.65
X6.7Y-2.85
X6.7787Y-2.85
X6.4Y-2.85
X6.4787Y-2.85
X7.0213Y-2.9
X7.1Y-2.9
X6.4787Y-2.05
T2
X5.6Y-1.15
X5.6Y-1.2287
X5.6Y-1.3075
X4.4Y-3.05
X4.8Y-3.05
X6.0Y-1.75
X6.4Y-1.75
X6.0Y-3.85
X6.0Y-4.25
X5.1Y-3.85
X5.1Y-4.25
X6.35Y-2.35
X6.35Y-2.65
X6.45Y-2.35
X6.45Y-2.65
X6.55Y-2.35
X6.55Y-2.65
X6.65Y-2.35
X6.65Y-2.65
X6.75Y-2.35
X6.75Y-2.65
X6.85Y-2.35
X6.85Y-2.65
X6.95Y-2.35
X6.95Y-2.65
X7.05Y-2.35
X7.05Y-2.65
X4.0Y-1.6988
X4.0Y-1.7776
X4.0Y-1.8563
X4.0Y-1.935
X4.0Y-2.0138
X4.0Y-2.0925
X4.0Y-2.1713
X4.0Y-2.25
X4.4Y-2.35
X4.8Y-2.35
X3.3Y-2.4
X3.4Y-2.4
X3.5Y-2.4
X7.5Y-3.75
X7.5Y-4.15
X6.65Y-3.75
X6.65Y-4.15
X3.0Y-3.2776
X3.0Y-3.3563
X3.0Y-3.435
X3.0Y-3.5138
X3.0Y-3.5925
X3.0Y-3.6713
X3.0Y-3.75
X3.0Y-3.8287
X3.0Y-3.9075
X3.0Y-3.9862
X3.0Y-4.065
X7.7Y-3.85
X7.7Y-4.25
X5.55Y-3.85
X5.55Y-4.25
X4.4Y-1.5
X4.8Y-1.5
X2.85Y-4.45
X2.9287Y-4.45
X3.0075Y-4.45
X3.0862Y-4.45
X3.165Y-4.45
X3.2437Y-4.45
X3.3224Y-4.45
X3.4012Y-4.45
X2.7Y-3.0201
X2.7Y-3.0988
X2.7Y-3.1776
X2.7Y-3.2563
X2.7Y-3.335
X2.7Y-3.4138
X2.7Y-3.4925
X2.7Y-3.5713
X2.7Y-3.65
X2.7Y-3.7287
X2.7Y-3.8075
X2.7Y-3.8862
X2.7Y-3.965
X2.7Y-4.0437
X7.95Y-3.75
X7.95Y-4.15
X5.75Y-3.8
X5.75Y-4.2
X3.45Y-1.3925
X3.45Y-1.4713
X3.45Y-1.55
X4.4Y-2.55
X4.8Y-2.55
X4.4Y-2.0
X4.8Y-2.0
X7.3Y-3.85
X7.3Y-4.25
X7.1Y-3.75
X7.1Y-4.15
X6.5425Y-1.55
X6.6213Y-1.55
X4.4Y-2.15
X4.8Y-2.15
X5.9488Y-3.35
X6.0276Y-3.35
X6.1063Y-3.35
X6.185Y-3.35
X6.2638Y-3.35
X6.3425Y-3.35
X6.4213Y-3.35
X6.5Y-3.35
X5.35Y-3.8
X5.35Y-4.2
X2.85Y-4.8
X2.9287Y-4.8
X3.0075Y-4.8
X3.0862Y-4.8
X3.165Y-4.8
X3.2437Y-4.8
X3.3224Y-4.8
X3.4012Y-4.8
X6.85Y-3.85
X6.85Y-4.25
X4.7Y-3.85
X4.7Y-4.25
X6.2Y-1.15
X6.2Y-1.2287
X6.2Y-1.3075
X4.4Y-2.75
X4.8Y-2.75
X4.9Y-3.8
X4.9Y-4.2
X4.4Y-1.75
X4.8Y-1.75
X6.4Y-3.85
X6.4Y-4.25
X6.2Y-3.8
X6.2Y-4.2
T3
X5.15Y-2.8
X5.25Y-2.8
X5.15Y-2.0
X5.25Y-2.0
X6.95Y-1.8
X7.05Y-1.8
X5.15Y-2.25
X5.25Y-2.25
X5.15Y-1.75
X5.25Y-1.75
X5.15Y-1.25
X5.25Y-1.25
X5.15Y-1.5
X5.25Y-1.5
X5.15Y-3.1
X5.25Y-3.1
X5.15Y-2.55
X5.25Y-2.55
T4
X7.8Y-2.4
X7.8Y-2.5091
X7.8Y-2.6181
X7.8Y-2.7272
X7.8Y-2.8362
X7.9118Y-2.4545
X7.9118Y-2.5636
X7.9118Y-2.6726
X7.9118Y-2.7817
T5
X4.5441Y-4.6228
X4.5441Y-4.8
X4.8Y-4.6228
X4.8Y-4.8
X6.2941Y-4.6228
X6.2941Y-4.8
X6.55Y-4.6228
X6.55Y-4.8
X5.3941Y-4.6228
X5.3941Y-4.8
X5.65Y-4.6228
X5.65Y-4.8
X5.8441Y-4.6228
X5.8441Y-4.8
X6.1Y-4.6228
X6.1Y-4.8
X4.9441Y-4.6228
X4.9441Y-4.8
X5.2Y-4.6228
X5.2Y-4.8
X4.0441Y-4.6228
X4.0441Y-4.8
X4.3Y-4.6228
X4.3Y-4.8
X7.1941Y-4.6228
X7.1941Y-4.8
X7.45Y-4.6228
X7.45Y-4.8
X6.7441Y-4.6228
X6.7441Y-4.8
X7.0Y-4.6228
X7.0Y-4.8
T6
X3.3031Y-3.15
X3.4016Y-2.7563
X3.5Y-3.15
X2.65Y-1.3031
X2.65Y-1.5
X3.0437Y-1.4016
X2.7Y-1.9031
X2.7Y-2.1
X3.0937Y-2.0016
T7
X7.8118Y-2.126
X7.8118Y-3.1102
T0
M30
